<svg width="40" height="40" viewBox="0 0 40 40" fill="none" xmlns="http://www.w3.org/2000/svg">
<path d="M0 8C0 3.58172 3.58172 0 8 0H32C36.4183 0 40 3.58172 40 8V32C40 36.4183 36.4183 40 32 40H8C3.58172 40 0 36.4183 0 32V8Z" fill="#46D7CB"/>
<path fill-rule="evenodd" clip-rule="evenodd" d="M15.8333 23.3327C15.8333 22.8743 16.2083 22.4993 16.6667 22.4993C17.125 22.4993 17.5 22.8743 17.5 23.3327C17.5 23.791 17.125 24.166 16.6667 24.166C16.2083 24.166 15.8333 23.791 15.8333 23.3327ZM20 22.4993H23.3333C23.7917 22.4993 24.1667 22.8743 24.1667 23.3327C24.1667 23.791 23.7917 24.166 23.3333 24.166H20C19.5417 24.166 19.1667 23.791 19.1667 23.3327C19.1667 22.8743 19.5417 22.4993 20 22.4993ZM25 26.666H15C14.5408 26.666 14.1667 26.2918 14.1667 25.8327V20.8327H25.8333V25.8327C25.8333 26.2918 25.4592 26.666 25 26.666ZM15 14.9993H15.8333V15.8327C15.8333 16.291 16.2083 16.666 16.6667 16.666C17.125 16.666 17.5 16.291 17.5 15.8327V14.9993H22.5V15.8327C22.5 16.291 22.875 16.666 23.3333 16.666C23.7917 16.666 24.1667 16.291 24.1667 15.8327V14.9993H25C25.4592 14.9993 25.8333 15.3735 25.8333 15.8327V19.166H14.1667V15.8327C14.1667 15.3735 14.5408 14.9993 15 14.9993ZM25 13.3327H24.1667V12.4993C24.1667 12.041 23.7917 11.666 23.3333 11.666C22.875 11.666 22.5 12.041 22.5 12.4993V13.3327H17.5V12.4993C17.5 12.041 17.125 11.666 16.6667 11.666C16.2083 11.666 15.8333 12.041 15.8333 12.4993V13.3327H15C13.6217 13.3327 12.5 14.4543 12.5 15.8327V25.8327C12.5 27.211 13.6217 28.3327 15 28.3327H25C26.3783 28.3327 27.5 27.211 27.5 25.8327V15.8327C27.5 14.4543 26.3783 13.3327 25 13.3327Z" fill="white"/>
</svg>
